# Blender v3.0.1 OBJ File: 'gizmo_move.blend'
# www.blender.org
mtllib scale.mtl
o Cube_Cube.003
v -0.059300 0.559763 0.059300
v -0.059300 0.678362 0.059300
v -0.059300 0.559763 -0.059300
v -0.059300 0.678362 -0.059300
v 0.059300 0.559763 0.059300
v 0.059300 0.678362 0.059300
v 0.059300 0.559763 -0.059300
v 0.059300 0.678362 -0.059300
v -0.026550 0.559763 -0.026550
v -0.026550 0.559763 0.026550
v 0.026550 0.559763 -0.026550
v 0.026550 0.559763 0.026550
v -0.026550 0.001014 -0.026550
v -0.026550 0.001014 0.026550
v 0.026550 0.001014 -0.026550
v 0.026550 0.001014 0.026550
vt 0.625000 0.000000
vt 0.375000 0.250000
vt 0.375000 0.000000
vt 0.625000 0.250000
vt 0.375000 0.500000
vt 0.625000 0.500000
vt 0.375000 0.750000
vt 0.625000 0.750000
vt 0.375000 1.000000
vt 0.375000 0.000000
vt 0.875000 0.500000
vt 0.375000 0.500000
vt 0.375000 0.250000
vt 0.375000 0.250000
vt 0.375000 0.750000
vt 0.375000 0.500000
vt 0.125000 0.750000
vt 0.125000 0.500000
vt 0.375000 0.000000
vt 0.375000 1.000000
vt 0.375000 0.750000
vt 0.625000 1.000000
vt 0.875000 0.750000
vt 0.375000 1.000000
vn -1.0000 0.0000 0.0000
vn 0.0000 0.0000 -1.0000
vn 1.0000 0.0000 0.0000
vn 0.0000 0.0000 1.0000
vn 0.0000 -1.0000 0.0000
vn 0.0000 1.0000 0.0000
usemtl None
s off
f 2/1/1 3/2/1 1/3/1
f 4/4/2 7/5/2 3/2/2
f 8/6/3 5/7/3 7/5/3
f 6/8/4 1/9/4 5/7/4
f 3/2/5 10/10/5 1/3/5
f 4/11/6 6/8/6 8/6/6
f 11/12/2 13/13/2 9/14/2
f 5/7/5 11/12/5 7/5/5
f 1/9/5 12/15/5 5/7/5
f 7/5/5 9/14/5 3/2/5
f 15/16/5 14/17/5 13/18/5
f 12/15/3 15/16/3 11/12/3
f 9/14/1 14/19/1 10/10/1
f 10/20/4 16/21/4 12/15/4
f 2/1/1 4/4/1 3/2/1
f 4/4/2 8/6/2 7/5/2
f 8/6/3 6/8/3 5/7/3
f 6/8/4 2/22/4 1/9/4
f 3/2/5 9/14/5 10/10/5
f 4/11/6 2/23/6 6/8/6
f 11/12/2 15/16/2 13/13/2
f 5/7/5 12/15/5 11/12/5
f 1/9/5 10/20/5 12/15/5
f 7/5/5 11/12/5 9/14/5
f 15/16/5 16/21/5 14/17/5
f 12/15/3 16/21/3 15/16/3
f 9/14/1 13/13/1 14/19/1
f 10/20/4 14/24/4 16/21/4
